HIERARCHY
ROOT RootJoint
{
    OFFSET   0.000000   0.000000   0.000000
    CHANNELS 6 Xposition Yposition Zposition Xrotation Yrotation Zrotation
    JOINT pelvis_lowerback
    {
        OFFSET   0.000000   0.093605   0.000000
        CHANNELS 3 Xrotation Yrotation Zrotation
        JOINT lowerback_torso
        {
            OFFSET   0.000000   0.100000   0.000000
            CHANNELS 3 Xrotation Yrotation Zrotation
            JOINT torso_head
            {
                OFFSET   0.000000   0.282350   0.000000
                CHANNELS 3 Xrotation Yrotation Zrotation
                End Site
                {
                    OFFSET   0.000000   0.192650   0.000000
                }
            }
            JOINT rTorso_Clavicle
            {
                OFFSET  -0.001000   0.157500   0.000000
                CHANNELS 3 Xrotation Yrotation Zrotation
                JOINT rShoulder
                {
                    OFFSET  -0.117647   0.000000   0.000000
                    CHANNELS 3 Xrotation Yrotation Zrotation
                    JOINT rElbow
                    {
                        OFFSET  -0.245000   0.000000   0.000000
                        CHANNELS 3 Xrotation Yrotation Zrotation
                        JOINT rWrist
                        {
                            OFFSET  -0.240000   0.000000   0.000000
                            CHANNELS 3 Xrotation Yrotation Zrotation
                            End Site
                            {
                                OFFSET  -0.116353  -0.002500   0.000000
                            }
                        }
                    }
                }
            }
            JOINT lTorso_Clavicle
            {
                OFFSET   0.001000   0.157500   0.000000
                CHANNELS 3 Xrotation Yrotation Zrotation
                JOINT lShoulder
                {
                    OFFSET   0.117647   0.000000   0.000000
                    CHANNELS 3 Xrotation Yrotation Zrotation
                    JOINT lElbow
                    {
                        OFFSET   0.245000   0.000000   0.000000
                        CHANNELS 3 Xrotation Yrotation Zrotation
                        JOINT lWrist
                        {
                            OFFSET   0.240000   0.000000   0.000000
                            CHANNELS 3 Xrotation Yrotation Zrotation
                            End Site
                            {
                                OFFSET   0.116353  -0.002500   0.000000
                            }
                        }
                    }
                }
            }
        }
    }
    JOINT rHip
    {
        OFFSET  -0.100000  -0.051395   0.000000
        CHANNELS 3 Xrotation Yrotation Zrotation
        JOINT rKnee
        {
            OFFSET   0.000000  -0.410000   0.000000
            CHANNELS 3 Xrotation Yrotation Zrotation
            JOINT rAnkle
            {
                OFFSET   0.000000  -0.390000   0.000000
                CHANNELS 3 Xrotation Yrotation Zrotation
                JOINT rToeJoint
                {
                    OFFSET   0.000000  -0.050000   0.130000
                    CHANNELS 3 Xrotation Yrotation Zrotation
                    End Site
                    {
                        OFFSET  -0.010000   0.002000   0.060000
                    }
                }
            }
        }
    }
    JOINT lHip
    {
        OFFSET   0.100000  -0.051395   0.000000
        CHANNELS 3 Xrotation Yrotation Zrotation
        JOINT lKnee
        {
            OFFSET   0.000000  -0.410000   0.000000
            CHANNELS 3 Xrotation Yrotation Zrotation
            JOINT lAnkle
            {
                OFFSET   0.000000  -0.390000   0.000000
                CHANNELS 3 Xrotation Yrotation Zrotation
                JOINT lToeJoint
                {
                    OFFSET   0.000000  -0.050000   0.130000
                    CHANNELS 3 Xrotation Yrotation Zrotation
                    End Site
                    {
                        OFFSET   0.010000   0.002000   0.060000
                    }
                }
            }
        }
    }
}
MOTION
Frames: 15
Frame Time:   0.008333
 -2.456629   0.923344   3.788991 -10.508657 -23.692751  -2.645151  15.349397   6.061790   1.107379   7.270800   1.441225   1.896848   3.070405  -0.158633   2.904706   0.968015  -0.616081   5.277690  -8.375772   4.899253  45.615415  -0.062226  62.751004   0.060725   0.951321   3.799992  -3.803319   9.057290   7.204308  -6.513389  18.351180  -0.731454 -53.682756   0.002383 -24.357215  -0.002394   4.707284  -1.579264  -3.256927   7.558931   2.812845  -0.525619   4.172458   0.000182   0.002567  -1.816083   1.580632  -0.726737  -0.313420   0.000203  -0.004879 -19.837385  -1.932974   3.362258  92.861995  -0.013896  -0.009195 -10.916584  -4.580118  -1.194524  -0.837054   0.000025   0.000013
 -2.455664   0.923437   3.787595 -10.583797 -23.748342  -2.716357  15.235313   6.060926   1.166890   7.412476   1.500357   1.965853   3.158579  -0.217077   2.837657   0.984521  -0.694328   5.267677  -8.687192   4.772620  45.418338  -0.062557  63.988119   0.060400   0.919003   3.796372  -3.927771   9.141001   7.304035  -6.394781  18.610819  -0.628514 -53.717722   0.002222 -24.130380  -0.001786   4.726894  -1.591898  -3.353287   7.553907   2.968986  -0.512900   4.057373   0.000111   0.001964  -1.585550   1.489118  -0.685516  -0.324337   0.000165  -0.003903 -19.539755  -1.974015   3.310203  93.309554  -0.011575  -0.007705 -10.748545  -4.742314  -1.126950  -0.897091   0.000060   0.000154
 -2.454723   0.923476   3.786317 -10.643839 -23.751963  -2.776758  15.088630   6.045481   1.235211   7.532303   1.544580   2.026613   3.243890  -0.272572   2.768552   1.005010  -0.791836   5.236539  -8.974364   4.645880  45.219452  -0.062914  65.151277   0.059863   0.892033   3.847142  -4.058201   9.231646   7.412804  -6.261851  18.864240  -0.521118 -53.740268   0.002099 -23.917555  -0.001215   4.743126  -1.617567  -3.420107   7.530458   3.083552  -0.498707   3.984915   0.000066   0.001507  -1.384444   1.369906  -0.651808  -0.416022   0.000142  -0.003108 -19.197672  -2.024676   3.270327  93.591502  -0.009453  -0.006321 -10.594102  -4.892909  -1.062848  -0.941853   0.000068   0.000213
 -2.453778   0.923476   3.785093 -10.690082 -23.717399  -2.834500  14.929203   6.024073   1.309617   7.627866   1.578815   2.085315   3.320038  -0.324499   2.703586   1.023422  -0.894345   5.191970  -9.243194   4.521997  45.020677  -0.062742  66.236875   0.058786   0.867335   3.904729  -4.210475   9.321882   7.520511  -6.127388  19.106158  -0.415033 -53.754820   0.001976 -23.716752  -0.000720   4.758588  -1.634566  -3.465756   7.498180   3.172546  -0.477157   3.924923   0.000034   0.001146  -1.207001   1.240798  -0.621802  -0.494508   0.000117  -0.002477 -18.847785  -2.076250   3.249542  93.807717  -0.007635  -0.005136 -10.450726  -5.032914  -1.002504  -0.979911   0.000060   0.000233
 -2.452809   0.923451   3.783896 -10.725925 -23.655967  -2.888487  14.766290   6.000500   1.384134   7.704836   1.606832   2.140888   3.388349  -0.373009   2.643233   1.038369  -0.995367   5.140230  -9.496219   4.403895  44.826290  -0.061829  67.249751   0.057086   0.844130   3.959255  -4.378742   9.407665   7.623249  -5.996537  19.333676  -0.313570 -53.764803   0.001836 -23.528462  -0.000314   4.773417  -1.645264  -3.497877   7.460595   3.243988  -0.453146   3.868853   0.000009   0.000857  -1.047176   1.108485  -0.594234  -0.541740   0.000094  -0.001978 -18.502250  -2.125033   3.241119  93.992327  -0.006120  -0.004152 -10.316975  -5.163288  -0.945853  -1.013063   0.000045   0.000231
 -2.451805   0.923409   3.782711 -10.754429 -23.573461  -2.937642  14.605064   5.976178   1.455161   7.768010   1.630384   2.192092   3.450348  -0.418320   2.587108   1.050182  -1.092098   5.085391  -9.734400   4.292918  44.639285  -0.060155  68.195033   0.054794   0.822166   4.010569  -4.554677   9.487270   7.719464  -5.871548  19.545888  -0.218253 -53.772301   0.001678 -23.352768   0.000007   4.787485  -1.654584  -3.521821   7.418784   3.303040  -0.430199   3.815417  -0.000011   0.000624  -0.895831   0.977170  -0.567713  -0.586574   0.000073  -0.001583 -18.166460  -2.170329   3.239681  94.158743  -0.004869  -0.003345 -10.191992  -5.284787  -0.892720  -1.042350   0.000028   0.000218
 -2.450758   0.923353   3.781530 -10.778125 -23.476973  -2.983085  14.448497   5.953267   1.521495   7.820911   1.651514   2.238229   3.507140  -0.460590   2.534729   1.059422  -1.183078   5.030098  -9.958390   4.189578  44.461298  -0.057814  69.077335   0.052020   0.801318   4.059380  -4.731704   9.560363   7.809016  -5.754122  19.743077  -0.129552 -53.778946   0.001505 -23.189234   0.000250   4.800706  -1.665353  -3.541309   7.373212   3.348958  -0.410043   3.764714  -0.000027   0.000441  -0.751077   0.844756  -0.542291  -0.626696   0.000055  -0.001267 -17.842422  -2.211584   3.243225  94.312414  -0.003844  -0.002688 -10.075153  -5.398077  -0.842941  -1.068467   0.000011   0.000200
 -2.449749   0.923401   3.780575 -10.821872 -23.422924  -2.966413  14.242129   5.887913   1.544208   7.928989   1.706853   2.221920   3.607163  -0.534182   2.480888   1.090718  -1.252578   4.992944 -10.144587   4.136432  44.274387  -0.053964  69.852356   0.047836   0.796576   4.144593  -4.891897   9.647162   7.928100  -5.658144  19.878894   0.026158 -53.762241   0.001284 -23.118434   0.000360   4.826836  -1.643970  -3.500472   7.307418   3.377683  -0.474973   3.827195   0.000006   0.000396  -0.692737   0.763457  -0.481533  -0.629622   0.000044  -0.001013 -17.242574  -2.309487   3.180360  93.594016  -0.002464  -0.002007  -9.893368  -5.466953  -0.784800  -1.158467   0.000119   0.000251
 -2.448733   0.923392   3.779618 -10.829986 -23.341079  -2.958305  14.015545   5.808096   1.596032   8.009309   1.750261   2.206750   3.700212  -0.605302   2.427519   1.123966  -1.325663   4.943820 -10.314625   4.083963  44.091814  -0.050469  70.573772   0.044139   0.792303   4.215987  -5.030307   9.728297   8.045912  -5.566642  20.005281   0.172266 -53.750069   0.001093 -23.056466   0.000429   4.848367  -1.653087  -3.443030   7.201806   3.388293  -0.511318   3.906481   0.000039   0.000378  -0.645574   0.674126  -0.427758  -0.631964   0.000036  -0.000811 -16.625582  -2.451625   3.166745  92.641670  -0.001099  -0.001655  -9.730427  -5.528014  -0.728271  -1.228807   0.000201   0.000251
 -2.447676   0.923337   3.778635 -10.820556 -23.237209  -2.961441  13.792490   5.723338   1.663418   8.070113   1.782406   2.199365   3.784057  -0.672080   2.378859   1.154054  -1.399427   4.888826 -10.474184   4.032045  43.913861  -0.047140  71.246106   0.040744   0.788013   4.278027  -5.173783   9.800446   8.154231  -5.482808  20.120209   0.306503 -53.740944   0.000928 -23.000642   0.000467   4.867822  -1.676013  -3.384774   7.078213   3.385853  -0.527111   3.986183   0.000066   0.000369  -0.592871   0.578793  -0.376577  -0.664479   0.000030  -0.000649 -16.026066  -2.604826   3.190576  91.649645  -0.000125  -0.001542  -9.580954  -5.583567  -0.674601  -1.289935   0.000247   0.000229
 -2.446556   0.923255   3.777627 -10.803605 -23.120423  -2.971298  13.580455   5.637865   1.735801   8.120146   1.806466   2.196888   3.861034  -0.734521   2.334797   1.181038  -1.470997   4.833028 -10.624122   3.982019  43.743426  -0.043838  71.872793   0.037508   0.783763   4.332883  -5.322448   9.863304   8.252135  -5.406870  20.223631   0.428998 -53.733978   0.000785 -22.950374   0.000478   4.885789  -1.708142  -3.328310   6.946983   3.374599  -0.534218   4.063140   0.000088   0.000362  -0.536168   0.480784  -0.327659  -0.703582   0.000024  -0.000519 -15.452216  -2.755051   3.234344  90.685839   0.000469  -0.001519  -9.442279  -5.634736  -0.624089  -1.344190   0.000265   0.000199
 -2.445367   0.923158   3.776599 -10.783819 -22.997190  -2.984916  13.381613   5.554032   1.807662   8.163910   1.824872   2.196739   3.932541  -0.792843   2.294544   1.205852  -1.539110   4.779250 -10.764417   3.934600  43.582380  -0.040534  72.457063   0.034380   0.779518   4.381877  -5.470958   9.917921   8.340516  -5.338196  20.316669   0.540729 -53.728828   0.000660 -22.905077   0.000470   4.902525  -1.747562  -3.274562   6.812926   3.357547  -0.539495   4.136030   0.000106   0.000352  -0.477251   0.382500  -0.281048  -0.732200   0.000017  -0.000416 -14.906607  -2.897284   3.287202  89.773931   0.000784  -0.001506  -9.313024  -5.682146  -0.576716  -1.392885   0.000264   0.000170
 -2.444103   0.923054   3.775554 -10.763699 -22.871583  -3.001207  13.196365   5.473166   1.876533   8.203710   1.839303   2.197540   3.999311  -0.847299   2.257460   1.229234  -1.603341   4.728836 -10.895167   3.890016  43.431446  -0.037255  73.001854   0.031360   0.775229   4.425788  -5.615249   9.965605   8.420597  -5.276036  20.400673   0.642850 -53.725281   0.000552 -22.864133   0.000450   4.918211  -1.792563  -3.224048   6.678542   3.336726  -0.546130   4.204283   0.000121   0.000339  -0.417067   0.285503  -0.236701  -0.741538   0.000013  -0.000333 -14.389856  -3.030115   3.343444  88.920716   0.000912  -0.001470  -9.192317  -5.726196  -0.532354  -1.436876   0.000252   0.000142
 -2.442827   0.923131   3.774776 -10.752591 -22.792509  -2.924919  12.958013   5.369356   1.884373   8.290017   1.887916   2.123981   4.076069  -0.940042   2.226025   1.235948  -1.654079   4.669312 -10.883963   3.911775  43.290924  -0.031317  73.297057   0.025976   0.772426   4.590319  -5.783674  10.014688   8.516699  -5.215005  20.384945   0.746868 -53.716057   0.000440 -22.866377   0.000354   4.920690  -1.745410  -3.076818   6.575504   3.331912  -0.671651   4.263469   0.000136   0.000310  -0.372659   0.208912  -0.158297  -0.742312   0.000010  -0.000266 -13.593561  -3.141591   3.287181  87.095928   0.002332  -0.000926  -9.167249  -5.743207  -0.450037  -1.535199   0.000438   0.000166
 -2.441512   0.923154   3.773965 -10.693126 -22.675536  -2.857028  12.701858   5.247394   1.926512   8.340664   1.916717   2.054329   4.141727  -1.028560   2.192638   1.256170  -1.710378   4.600334 -10.859412   3.923578  43.152042  -0.026345  73.557385   0.021514   0.762933   4.664247  -5.900716  10.046122   8.600688  -5.159850  20.356865   0.834213 -53.714384   0.000347 -22.878329   0.000255   4.918116  -1.742855  -2.919275   6.429022   3.306079  -0.764891   4.317887   0.000145   0.000292  -0.323971   0.116944  -0.085257  -0.742932   0.000008  -0.000213 -12.811208  -3.275857   3.266747  85.069029   0.003236  -0.000641  -9.154072  -5.756715  -0.371940  -1.622801   0.000557   0.000164
